<mxfile host="Electron" modified="2023-04-12T13:17:46.335Z" agent="Mozilla/5.0 (Macintosh; Intel Mac OS X 10_15_7) AppleWebKit/537.36 (KHTML, like Gecko) draw.io/21.1.2 Chrome/106.0.5249.199 Electron/21.4.3 Safari/537.36" etag="7qB1N5jUxf4tNp_yMuf1" version="21.1.2" type="device">
  <diagram id="x7SGJyMS_2VAvonJNlFj" name="Page-1">
    <mxGraphModel dx="1083" dy="1900" grid="1" gridSize="10" guides="1" tooltips="1" connect="1" arrows="1" fold="1" page="1" pageScale="1" pageWidth="827" pageHeight="1169" math="0" shadow="0">
      <root>
        <mxCell id="0" />
        <mxCell id="1" parent="0" />
        <mxCell id="g0zH96nOjT9wecneinKK-1" value="saref:FeatureofInterest" style="rounded=0;whiteSpace=wrap;html=1;fillColor=#FFFFFF;strokeColor=#000000;" parent="1" vertex="1">
          <mxGeometry x="260" y="-10" width="200" height="30" as="geometry" />
        </mxCell>
        <mxCell id="g0zH96nOjT9wecneinKK-13" style="edgeStyle=orthogonalEdgeStyle;rounded=0;orthogonalLoop=1;jettySize=auto;html=1;endArrow=classic;endFill=1;entryX=0.25;entryY=1;entryDx=0;entryDy=0;" parent="1" source="g0zH96nOjT9wecneinKK-1" target="jXRsGs3nBoWVNFzLV1JU-29" edge="1">
          <mxGeometry relative="1" as="geometry">
            <Array as="points">
              <mxPoint x="460" y="60" />
              <mxPoint x="598" y="60" />
            </Array>
          </mxGeometry>
        </mxCell>
        <mxCell id="5ucOheYLkEhU-QczYXZN-18" value="saref:hasProperty" style="edgeLabel;html=1;align=center;verticalAlign=middle;resizable=0;points=[];" parent="g0zH96nOjT9wecneinKK-13" vertex="1" connectable="0">
          <mxGeometry x="-0.3706" y="-2" relative="1" as="geometry">
            <mxPoint as="offset" />
          </mxGeometry>
        </mxCell>
        <mxCell id="g0zH96nOjT9wecneinKK-2" value="adapters:EnergyProperty" style="rounded=0;whiteSpace=wrap;html=1;fillColor=#FFFFFF;strokeColor=#000000;" parent="1" vertex="1">
          <mxGeometry x="550" y="150" width="130" height="30" as="geometry" />
        </mxCell>
        <mxCell id="g0zH96nOjT9wecneinKK-4" value="core:Municipality" style="rounded=0;whiteSpace=wrap;html=1;fillColor=#FFFFFF;strokeColor=#6c8ebf;" parent="1" vertex="1">
          <mxGeometry x="194.5" y="120" width="180" height="30" as="geometry" />
        </mxCell>
        <mxCell id="g0zH96nOjT9wecneinKK-10" style="edgeStyle=orthogonalEdgeStyle;rounded=0;orthogonalLoop=1;jettySize=auto;html=1;endArrow=block;endFill=0;" parent="1" source="g0zH96nOjT9wecneinKK-4" target="g0zH96nOjT9wecneinKK-1" edge="1">
          <mxGeometry relative="1" as="geometry">
            <mxPoint x="290" y="295" as="sourcePoint" />
            <mxPoint x="414" y="240" as="targetPoint" />
            <Array as="points">
              <mxPoint x="420" y="140" />
            </Array>
          </mxGeometry>
        </mxCell>
        <mxCell id="jXRsGs3nBoWVNFzLV1JU-1" value="core:Building" style="rounded=0;whiteSpace=wrap;html=1;fillColor=#FFFFFF;strokeColor=#6c8ebf;" parent="1" vertex="1">
          <mxGeometry x="187.25" y="160" width="180" height="30" as="geometry" />
        </mxCell>
        <mxCell id="jXRsGs3nBoWVNFzLV1JU-2" value="core:heatingArea:Float&lt;br&gt;core:constructionYear:Integer" style="rounded=0;whiteSpace=wrap;html=1;snapToPoint=1;points=[[0.1,0],[0.2,0],[0.3,0],[0.4,0],[0.5,0],[0.6,0],[0.7,0],[0.8,0],[0.9,0],[0,0.1],[0,0.3],[0,0.5],[0,0.7],[0,0.9],[0.1,1],[0.2,1],[0.3,1],[0.4,1],[0.5,1],[0.6,1],[0.7,1],[0.8,1],[0.9,1],[1,0.1],[1,0.3],[1,0.5],[1,0.7],[1,0.9]];" parent="1" vertex="1">
          <mxGeometry x="187.25" y="190" width="179" height="40" as="geometry" />
        </mxCell>
        <mxCell id="jXRsGs3nBoWVNFzLV1JU-4" style="edgeStyle=orthogonalEdgeStyle;rounded=0;orthogonalLoop=1;jettySize=auto;html=1;endArrow=block;endFill=0;exitX=1;exitY=0.75;exitDx=0;exitDy=0;" parent="1" source="jXRsGs3nBoWVNFzLV1JU-1" target="g0zH96nOjT9wecneinKK-1" edge="1">
          <mxGeometry relative="1" as="geometry">
            <mxPoint x="370" y="395" as="sourcePoint" />
            <mxPoint x="424" y="340" as="targetPoint" />
            <Array as="points">
              <mxPoint x="367" y="180" />
              <mxPoint x="420" y="180" />
            </Array>
          </mxGeometry>
        </mxCell>
        <mxCell id="jXRsGs3nBoWVNFzLV1JU-5" style="edgeStyle=orthogonalEdgeStyle;rounded=0;orthogonalLoop=1;jettySize=auto;html=1;exitX=0;exitY=0.5;exitDx=0;exitDy=0;endArrow=classic;endFill=1;entryX=0;entryY=0.5;entryDx=0;entryDy=0;" parent="1" source="jXRsGs3nBoWVNFzLV1JU-1" target="g0zH96nOjT9wecneinKK-4" edge="1">
          <mxGeometry relative="1" as="geometry">
            <mxPoint x="60" y="360" as="sourcePoint" />
            <mxPoint x="160" y="360" as="targetPoint" />
          </mxGeometry>
        </mxCell>
        <mxCell id="jXRsGs3nBoWVNFzLV1JU-16" value="energ:belongsTo" style="edgeLabel;html=1;align=center;verticalAlign=middle;resizable=0;points=[];" parent="jXRsGs3nBoWVNFzLV1JU-5" vertex="1" connectable="0">
          <mxGeometry x="-0.1429" y="2" relative="1" as="geometry">
            <mxPoint x="-28" y="15" as="offset" />
          </mxGeometry>
        </mxCell>
        <mxCell id="jXRsGs3nBoWVNFzLV1JU-13" value="&lt;u&gt;energ:LargerHouseholds&lt;/u&gt;" style="rounded=0;whiteSpace=wrap;html=1;snapToPoint=1;points=[[0.1,0],[0.2,0],[0.3,0],[0.4,0],[0.5,0],[0.6,0],[0.7,0],[0.8,0],[0.9,0],[0,0.1],[0,0.3],[0,0.5],[0,0.7],[0,0.9],[0.1,1],[0.2,1],[0.3,1],[0.4,1],[0.5,1],[0.6,1],[0.7,1],[0.8,1],[0.9,1],[1,0.1],[1,0.3],[1,0.5],[1,0.7],[1,0.9]];" parent="1" vertex="1">
          <mxGeometry x="110" y="480" width="214.5" height="30" as="geometry" />
        </mxCell>
        <mxCell id="jXRsGs3nBoWVNFzLV1JU-17" value="saref:Price" style="rounded=0;whiteSpace=wrap;html=1;fillColor=#FFFFFF;strokeColor=#6c8ebf;" parent="1" vertex="1">
          <mxGeometry x="549" y="300" width="110" height="30" as="geometry" />
        </mxCell>
        <mxCell id="jXRsGs3nBoWVNFzLV1JU-18" style="edgeStyle=orthogonalEdgeStyle;rounded=0;orthogonalLoop=1;jettySize=auto;html=1;exitX=0;exitY=0.75;exitDx=0;exitDy=0;endArrow=classic;endFill=1;" parent="1" source="g0zH96nOjT9wecneinKK-2" target="jXRsGs3nBoWVNFzLV1JU-17" edge="1">
          <mxGeometry relative="1" as="geometry">
            <mxPoint x="610" y="309" as="sourcePoint" />
            <mxPoint x="710" y="309" as="targetPoint" />
            <Array as="points">
              <mxPoint x="540" y="173" />
              <mxPoint x="540" y="315" />
            </Array>
          </mxGeometry>
        </mxCell>
        <mxCell id="jXRsGs3nBoWVNFzLV1JU-19" value="saref:hasPrice" style="edgeLabel;html=1;align=center;verticalAlign=middle;resizable=0;points=[];" parent="jXRsGs3nBoWVNFzLV1JU-18" vertex="1" connectable="0">
          <mxGeometry x="0.2246" y="-1" relative="1" as="geometry">
            <mxPoint x="-19" y="4" as="offset" />
          </mxGeometry>
        </mxCell>
        <mxCell id="jXRsGs3nBoWVNFzLV1JU-20" value="&lt;u&gt;adapters:EnergyConsumption&lt;/u&gt;" style="rounded=0;whiteSpace=wrap;html=1;snapToPoint=1;points=[[0.1,0],[0.2,0],[0.3,0],[0.4,0],[0.5,0],[0.6,0],[0.7,0],[0.8,0],[0.9,0],[0,0.1],[0,0.3],[0,0.5],[0,0.7],[0,0.9],[0.1,1],[0.2,1],[0.3,1],[0.4,1],[0.5,1],[0.6,1],[0.7,1],[0.8,1],[0.9,1],[1,0.1],[1,0.3],[1,0.5],[1,0.7],[1,0.9]];strokeColor=#000000;" parent="1" vertex="1">
          <mxGeometry x="570" y="210" width="174" height="30" as="geometry" />
        </mxCell>
        <mxCell id="jXRsGs3nBoWVNFzLV1JU-21" value="&lt;u&gt;adapters:EnergyUseIntensity&lt;/u&gt;" style="rounded=0;whiteSpace=wrap;html=1;snapToPoint=1;points=[[0.1,0],[0.2,0],[0.3,0],[0.4,0],[0.5,0],[0.6,0],[0.7,0],[0.8,0],[0.9,0],[0,0.1],[0,0.3],[0,0.5],[0,0.7],[0,0.9],[0.1,1],[0.2,1],[0.3,1],[0.4,1],[0.5,1],[0.6,1],[0.7,1],[0.8,1],[0.9,1],[1,0.1],[1,0.3],[1,0.5],[1,0.7],[1,0.9]];" parent="1" vertex="1">
          <mxGeometry x="570" y="250" width="174" height="30" as="geometry" />
        </mxCell>
        <mxCell id="jXRsGs3nBoWVNFzLV1JU-22" value="" style="endArrow=open;html=1;fontColor=#000099;endFill=0;dashed=1;endSize=8;rounded=0;exitX=1;exitY=0.7;exitDx=0;exitDy=0;" parent="1" source="jXRsGs3nBoWVNFzLV1JU-20" target="g0zH96nOjT9wecneinKK-2" edge="1">
          <mxGeometry width="50" height="50" relative="1" as="geometry">
            <mxPoint x="736" y="280" as="sourcePoint" />
            <mxPoint x="680" y="165" as="targetPoint" />
            <Array as="points">
              <mxPoint x="790" y="230" />
              <mxPoint x="790" y="170" />
            </Array>
          </mxGeometry>
        </mxCell>
        <mxCell id="jXRsGs3nBoWVNFzLV1JU-26" value="" style="endArrow=open;html=1;fontColor=#000099;endFill=0;dashed=1;endSize=8;rounded=0;exitX=1;exitY=0.3;exitDx=0;exitDy=0;" parent="1" source="jXRsGs3nBoWVNFzLV1JU-21" target="g0zH96nOjT9wecneinKK-2" edge="1">
          <mxGeometry width="50" height="50" relative="1" as="geometry">
            <mxPoint x="786" y="315" as="sourcePoint" />
            <mxPoint x="660" y="225" as="targetPoint" />
            <Array as="points">
              <mxPoint x="790" y="260" />
              <mxPoint x="790" y="170" />
            </Array>
          </mxGeometry>
        </mxCell>
        <mxCell id="jXRsGs3nBoWVNFzLV1JU-28" style="edgeStyle=orthogonalEdgeStyle;rounded=0;orthogonalLoop=1;jettySize=auto;html=1;endArrow=block;endFill=0;entryX=1;entryY=0.5;entryDx=0;entryDy=0;" parent="1" target="jXRsGs3nBoWVNFzLV1JU-17" edge="1">
          <mxGeometry relative="1" as="geometry">
            <mxPoint x="698" y="370" as="sourcePoint" />
            <mxPoint x="751" y="382.5" as="targetPoint" />
            <Array as="points">
              <mxPoint x="698" y="315" />
            </Array>
          </mxGeometry>
        </mxCell>
        <mxCell id="bPdux7eXmS8dh4rzwYNR-2" value="" style="edgeStyle=orthogonalEdgeStyle;rounded=0;orthogonalLoop=1;jettySize=auto;html=1;entryX=0.364;entryY=0.967;entryDx=0;entryDy=0;entryPerimeter=0;startArrow=none;" parent="1" source="jXRsGs3nBoWVNFzLV1JU-29" target="713faTVkF-1HJnTwqdIZ-5" edge="1">
          <mxGeometry relative="1" as="geometry">
            <Array as="points">
              <mxPoint x="650" y="100" />
              <mxPoint x="843" y="100" />
            </Array>
          </mxGeometry>
        </mxCell>
        <mxCell id="jXRsGs3nBoWVNFzLV1JU-29" value="saref:Property" style="rounded=0;whiteSpace=wrap;html=1;fillColor=#FFFFFF;strokeColor=#000000;" parent="1" vertex="1">
          <mxGeometry x="570" y="-10" width="110" height="30" as="geometry" />
        </mxCell>
        <mxCell id="jXRsGs3nBoWVNFzLV1JU-30" style="edgeStyle=orthogonalEdgeStyle;rounded=0;orthogonalLoop=1;jettySize=auto;html=1;endArrow=block;endFill=0;" parent="1" source="g0zH96nOjT9wecneinKK-2" target="jXRsGs3nBoWVNFzLV1JU-29" edge="1">
          <mxGeometry relative="1" as="geometry">
            <mxPoint x="685" y="205" as="sourcePoint" />
            <mxPoint x="670" y="70" as="targetPoint" />
            <Array as="points" />
          </mxGeometry>
        </mxCell>
        <mxCell id="jXRsGs3nBoWVNFzLV1JU-31" value="energ:SourceEnergy" style="rounded=0;whiteSpace=wrap;html=1;fillColor=#A9D2FC;strokeColor=#6c8ebf;" parent="1" vertex="1">
          <mxGeometry x="810" y="160" width="120" height="30" as="geometry" />
        </mxCell>
        <mxCell id="jXRsGs3nBoWVNFzLV1JU-34" value="&lt;u&gt;energ:FuelOil&lt;/u&gt;" style="rounded=0;whiteSpace=wrap;html=1;snapToPoint=1;points=[[0.1,0],[0.2,0],[0.3,0],[0.4,0],[0.5,0],[0.6,0],[0.7,0],[0.8,0],[0.9,0],[0,0.1],[0,0.3],[0,0.5],[0,0.7],[0,0.9],[0.1,1],[0.2,1],[0.3,1],[0.4,1],[0.5,1],[0.6,1],[0.7,1],[0.8,1],[0.9,1],[1,0.1],[1,0.3],[1,0.5],[1,0.7],[1,0.9]];" parent="1" vertex="1">
          <mxGeometry x="810" y="200" width="130" height="30" as="geometry" />
        </mxCell>
        <mxCell id="jXRsGs3nBoWVNFzLV1JU-35" value="&lt;u&gt;energ:NatruralGas&lt;/u&gt;" style="rounded=0;whiteSpace=wrap;html=1;snapToPoint=1;points=[[0.1,0],[0.2,0],[0.3,0],[0.4,0],[0.5,0],[0.6,0],[0.7,0],[0.8,0],[0.9,0],[0,0.1],[0,0.3],[0,0.5],[0,0.7],[0,0.9],[0.1,1],[0.2,1],[0.3,1],[0.4,1],[0.5,1],[0.6,1],[0.7,1],[0.8,1],[0.9,1],[1,0.1],[1,0.3],[1,0.5],[1,0.7],[1,0.9]];" parent="1" vertex="1">
          <mxGeometry x="810" y="240" width="130" height="30" as="geometry" />
        </mxCell>
        <mxCell id="jXRsGs3nBoWVNFzLV1JU-36" value="&lt;u&gt;energ:Firewood&lt;/u&gt;" style="rounded=0;whiteSpace=wrap;html=1;snapToPoint=1;points=[[0.1,0],[0.2,0],[0.3,0],[0.4,0],[0.5,0],[0.6,0],[0.7,0],[0.8,0],[0.9,0],[0,0.1],[0,0.3],[0,0.5],[0,0.7],[0,0.9],[0.1,1],[0.2,1],[0.3,1],[0.4,1],[0.5,1],[0.6,1],[0.7,1],[0.8,1],[0.9,1],[1,0.1],[1,0.3],[1,0.5],[1,0.7],[1,0.9]];" parent="1" vertex="1">
          <mxGeometry x="810" y="280" width="130" height="30" as="geometry" />
        </mxCell>
        <mxCell id="jXRsGs3nBoWVNFzLV1JU-37" value="&lt;u&gt;energ:LigniteBriquette&lt;/u&gt;" style="rounded=0;whiteSpace=wrap;html=1;snapToPoint=1;points=[[0.1,0],[0.2,0],[0.3,0],[0.4,0],[0.5,0],[0.6,0],[0.7,0],[0.8,0],[0.9,0],[0,0.1],[0,0.3],[0,0.5],[0,0.7],[0,0.9],[0.1,1],[0.2,1],[0.3,1],[0.4,1],[0.5,1],[0.6,1],[0.7,1],[0.8,1],[0.9,1],[1,0.1],[1,0.3],[1,0.5],[1,0.7],[1,0.9]];" parent="1" vertex="1">
          <mxGeometry x="810" y="320" width="130" height="30" as="geometry" />
        </mxCell>
        <mxCell id="713faTVkF-1HJnTwqdIZ-1" value="energ:Consumer" style="rounded=0;whiteSpace=wrap;html=1;fillColor=#A9D2FC;strokeColor=#6c8ebf;" parent="1" vertex="1">
          <mxGeometry x="135.5" y="290" width="180" height="40" as="geometry" />
        </mxCell>
        <mxCell id="713faTVkF-1HJnTwqdIZ-2" style="edgeStyle=orthogonalEdgeStyle;rounded=0;orthogonalLoop=1;jettySize=auto;html=1;exitX=0;exitY=0.75;exitDx=0;exitDy=0;endArrow=classic;endFill=1;" parent="1" source="jXRsGs3nBoWVNFzLV1JU-17" target="713faTVkF-1HJnTwqdIZ-1" edge="1">
          <mxGeometry relative="1" as="geometry">
            <mxPoint x="489" y="405" as="sourcePoint" />
            <mxPoint x="450" y="555" as="targetPoint" />
            <Array as="points">
              <mxPoint x="549" y="308" />
            </Array>
          </mxGeometry>
        </mxCell>
        <mxCell id="713faTVkF-1HJnTwqdIZ-3" value="energ:dependsOnConsumer" style="edgeLabel;html=1;align=center;verticalAlign=middle;resizable=0;points=[];" parent="713faTVkF-1HJnTwqdIZ-2" vertex="1" connectable="0">
          <mxGeometry x="0.2246" y="-1" relative="1" as="geometry">
            <mxPoint y="1" as="offset" />
          </mxGeometry>
        </mxCell>
        <mxCell id="713faTVkF-1HJnTwqdIZ-5" value="saref:Measurement" style="rounded=0;whiteSpace=wrap;html=1;fillColor=#FFFFFF;strokeColor=#6c8ebf;" parent="1" vertex="1">
          <mxGeometry x="770" y="-10" width="200" height="30" as="geometry" />
        </mxCell>
        <mxCell id="713faTVkF-1HJnTwqdIZ-6" style="edgeStyle=orthogonalEdgeStyle;rounded=0;orthogonalLoop=1;jettySize=auto;html=1;endArrow=classic;endFill=1;" parent="1" source="713faTVkF-1HJnTwqdIZ-5" target="jXRsGs3nBoWVNFzLV1JU-29" edge="1">
          <mxGeometry relative="1" as="geometry">
            <Array as="points">
              <mxPoint x="730" />
              <mxPoint x="730" />
            </Array>
            <mxPoint x="620" y="50" as="sourcePoint" />
            <mxPoint x="720" y="-55" as="targetPoint" />
          </mxGeometry>
        </mxCell>
        <mxCell id="713faTVkF-1HJnTwqdIZ-8" value="om:UnitOfMeasure" style="rounded=0;whiteSpace=wrap;html=1;fillColor=#FFFFFF;strokeColor=#6c8ebf;" parent="1" vertex="1">
          <mxGeometry x="1060" y="-60" width="110" height="30" as="geometry" />
        </mxCell>
        <mxCell id="713faTVkF-1HJnTwqdIZ-9" style="edgeStyle=orthogonalEdgeStyle;rounded=0;orthogonalLoop=1;jettySize=auto;html=1;endArrow=classic;endFill=1;exitX=1;exitY=0.5;exitDx=0;exitDy=0;" parent="1" source="713faTVkF-1HJnTwqdIZ-5" target="713faTVkF-1HJnTwqdIZ-8" edge="1">
          <mxGeometry relative="1" as="geometry">
            <Array as="points">
              <mxPoint x="1030" y="5" />
              <mxPoint x="1030" y="-45" />
            </Array>
            <mxPoint x="984.5" y="10" as="sourcePoint" />
            <mxPoint x="1205.5" y="-20" as="targetPoint" />
          </mxGeometry>
        </mxCell>
        <mxCell id="713faTVkF-1HJnTwqdIZ-10" value="saref:isMeasuredIn" style="edgeLabel;html=1;align=center;verticalAlign=middle;resizable=0;points=[];" parent="713faTVkF-1HJnTwqdIZ-9" vertex="1" connectable="0">
          <mxGeometry x="-0.241" y="-2" relative="1" as="geometry">
            <mxPoint x="4" y="-7" as="offset" />
          </mxGeometry>
        </mxCell>
        <mxCell id="5ucOheYLkEhU-QczYXZN-1" value="&lt;u&gt;energ:ElectricityGrid&lt;/u&gt;" style="rounded=0;whiteSpace=wrap;html=1;snapToPoint=1;points=[[0.1,0],[0.2,0],[0.3,0],[0.4,0],[0.5,0],[0.6,0],[0.7,0],[0.8,0],[0.9,0],[0,0.1],[0,0.3],[0,0.5],[0,0.7],[0,0.9],[0.1,1],[0.2,1],[0.3,1],[0.4,1],[0.5,1],[0.6,1],[0.7,1],[0.8,1],[0.9,1],[1,0.1],[1,0.3],[1,0.5],[1,0.7],[1,0.9]];" parent="1" vertex="1">
          <mxGeometry x="810" y="360" width="130" height="30" as="geometry" />
        </mxCell>
        <mxCell id="5ucOheYLkEhU-QczYXZN-2" style="edgeStyle=orthogonalEdgeStyle;rounded=0;orthogonalLoop=1;jettySize=auto;html=1;endArrow=classic;endFill=1;exitX=1;exitY=0.25;exitDx=0;exitDy=0;entryX=0;entryY=0;entryDx=0;entryDy=0;" parent="1" source="g0zH96nOjT9wecneinKK-2" target="jXRsGs3nBoWVNFzLV1JU-31" edge="1">
          <mxGeometry relative="1" as="geometry">
            <Array as="points">
              <mxPoint x="680" y="160" />
            </Array>
            <mxPoint x="660" y="230" as="sourcePoint" />
            <mxPoint x="1006.5" y="140" as="targetPoint" />
          </mxGeometry>
        </mxCell>
        <mxCell id="5ucOheYLkEhU-QczYXZN-3" value="energ:hasSource" style="edgeLabel;html=1;align=center;verticalAlign=middle;resizable=0;points=[];" parent="5ucOheYLkEhU-QczYXZN-2" vertex="1" connectable="0">
          <mxGeometry x="-0.1404" y="-1" relative="1" as="geometry">
            <mxPoint x="13" y="-16" as="offset" />
          </mxGeometry>
        </mxCell>
        <mxCell id="5ucOheYLkEhU-QczYXZN-6" value="&lt;div&gt;&amp;nbsp;&lt;/div&gt;&lt;b&gt;energ&lt;/b&gt;:https://auroral.iot.linkeddata.es/def/energy#&lt;br&gt;&lt;b&gt;saref&lt;/b&gt;:&amp;nbsp;https://saref.etsi.org/core#&lt;br&gt;&lt;b&gt;core&lt;/b&gt;:&amp;nbsp;https://auroral.iot.linkeddata.es/def/core#&lt;br&gt;&lt;b&gt;adapters&lt;/b&gt;:https://auroral.iot.linkeddata.es/def/adapters#&lt;br&gt;&lt;b&gt;om&lt;/b&gt;: http://www.wurvoc.org/vocabularies/om-2/&lt;br&gt;&lt;b&gt;cur&lt;/b&gt;: http://publications.europa.eu/resource/authority/currency/&lt;br&gt;&lt;b&gt;time&lt;/b&gt;: https://www.w3.org/2006/time" style="shape=note;whiteSpace=wrap;html=1;backgroundOutline=1;darkOpacity=0.05;" parent="1" vertex="1">
          <mxGeometry x="870" y="720" width="385" height="130" as="geometry" />
        </mxCell>
        <mxCell id="5ucOheYLkEhU-QczYXZN-8" value="&lt;u&gt;core:KilowattHourYear&lt;/u&gt;" style="rounded=0;whiteSpace=wrap;html=1;snapToPoint=1;points=[[0.1,0],[0.2,0],[0.3,0],[0.4,0],[0.5,0],[0.6,0],[0.7,0],[0.8,0],[0.9,0],[0,0.1],[0,0.3],[0,0.5],[0,0.7],[0,0.9],[0.1,1],[0.2,1],[0.3,1],[0.4,1],[0.5,1],[0.6,1],[0.7,1],[0.8,1],[0.9,1],[1,0.1],[1,0.3],[1,0.5],[1,0.7],[1,0.9]];" parent="1" vertex="1">
          <mxGeometry x="1020" y="120" width="150" height="30" as="geometry" />
        </mxCell>
        <mxCell id="5ucOheYLkEhU-QczYXZN-9" value="&lt;u&gt;core:KiloWattHourSquareMeter&lt;/u&gt;" style="rounded=0;whiteSpace=wrap;html=1;snapToPoint=1;points=[[0.1,0],[0.2,0],[0.3,0],[0.4,0],[0.5,0],[0.6,0],[0.7,0],[0.8,0],[0.9,0],[0,0.1],[0,0.3],[0,0.5],[0,0.7],[0,0.9],[0.1,1],[0.2,1],[0.3,1],[0.4,1],[0.5,1],[0.6,1],[0.7,1],[0.8,1],[0.9,1],[1,0.1],[1,0.3],[1,0.5],[1,0.7],[1,0.9]];" parent="1" vertex="1">
          <mxGeometry x="1020" y="160" width="180" height="30" as="geometry" />
        </mxCell>
        <mxCell id="5ucOheYLkEhU-QczYXZN-10" value="&lt;u&gt;om:kilogram&lt;/u&gt;&lt;span style=&quot;color: rgba(0 , 0 , 0 , 0) ; font-family: monospace ; font-size: 0px&quot;&gt;%3CmxGraphModel%3E%3Croot%3E%3CmxCell%20id%3D%220%22%2F%3E%3CmxCell%20id%3D%221%22%20parent%3D%220%22%2F%3E%3CmxCell%20id%3D%222%22%20value%3D%22%26lt%3Bu%26gt%3Bcore%3AKiloWattSquareMeter%26lt%3B%2Fu%26gt%3B%22%20style%3D%22rounded%3D0%3BwhiteSpace%3Dwrap%3Bhtml%3D1%3BsnapToPoint%3D1%3Bpoints%3D%5B%5B0.1%2C0%5D%2C%5B0.2%2C0%5D%2C%5B0.3%2C0%5D%2C%5B0.4%2C0%5D%2C%5B0.5%2C0%5D%2C%5B0.6%2C0%5D%2C%5B0.7%2C0%5D%2C%5B0.8%2C0%5D%2C%5B0.9%2C0%5D%2C%5B0%2C0.1%5D%2C%5B0%2C0.3%5D%2C%5B0%2C0.5%5D%2C%5B0%2C0.7%5D%2C%5B0%2C0.9%5D%2C%5B0.1%2C1%5D%2C%5B0.2%2C1%5D%2C%5B0.3%2C1%5D%2C%5B0.4%2C1%5D%2C%5B0.5%2C1%5D%2C%5B0.6%2C1%5D%2C%5B0.7%2C1%5D%2C%5B0.8%2C1%5D%2C%5B0.9%2C1%5D%2C%5B1%2C0.1%5D%2C%5B1%2C0.3%5D%2C%5B1%2C0.5%5D%2C%5B1%2C0.7%5D%2C%5B1%2C0.9%5D%5D%3B%22%20vertex%3D%221%22%20parent%3D%221%22%3E%3CmxGeometry%20x%3D%221210%22%20y%3D%22190%22%20width%3D%22150%22%20height%3D%2230%22%20as%3D%22geometry%22%2F%3E%3C%2FmxCell%3E%3C%2Froot%3E%3C%2FmxGraphModel%3E&lt;/span&gt;" style="rounded=0;whiteSpace=wrap;html=1;snapToPoint=1;points=[[0.1,0],[0.2,0],[0.3,0],[0.4,0],[0.5,0],[0.6,0],[0.7,0],[0.8,0],[0.9,0],[0,0.1],[0,0.3],[0,0.5],[0,0.7],[0,0.9],[0.1,1],[0.2,1],[0.3,1],[0.4,1],[0.5,1],[0.6,1],[0.7,1],[0.8,1],[0.9,1],[1,0.1],[1,0.3],[1,0.5],[1,0.7],[1,0.9]];" parent="1" vertex="1">
          <mxGeometry x="1020" y="200" width="150" height="30" as="geometry" />
        </mxCell>
        <mxCell id="5ucOheYLkEhU-QczYXZN-11" value="&lt;u&gt;om:cubicMetre&lt;/u&gt;&lt;span style=&quot;color: rgba(0 , 0 , 0 , 0) ; font-family: monospace ; font-size: 0px&quot;&gt;%3CmxGraphModel%3E%3Croot%3E%3CmxCell%20id%3D%220%22%2F%3E%3CmxCell%20id%3D%221%22%20parent%3D%220%22%2F%3E%3CmxCell%20id%3D%222%22%20value%3D%22%26lt%3Bu%26gt%3Bcore%3AKiloWattSquareMeter%26lt%3B%2Fu%26gt%3B%22%20style%3D%22rounded%3D0%3BwhiteSpace%3Dwrap%3Bhtml%3D1%3BsnapToPoint%3D1%3Bpoints%3D%5B%5B0.1%2C0%5D%2C%5B0.2%2C0%5D%2C%5B0.3%2C0%5D%2C%5B0.4%2C0%5D%2C%5B0.5%2C0%5D%2C%5B0.6%2C0%5D%2C%5B0.7%2C0%5D%2C%5B0.8%2C0%5D%2C%5B0.9%2C0%5D%2C%5B0%2C0.1%5D%2C%5B0%2C0.3%5D%2C%5B0%2C0.5%5D%2C%5B0%2C0.7%5D%2C%5B0%2C0.9%5D%2C%5B0.1%2C1%5D%2C%5B0.2%2C1%5D%2C%5B0.3%2C1%5D%2C%5B0.4%2C1%5D%2C%5B0.5%2C1%5D%2C%5B0.6%2C1%5D%2C%5B0.7%2C1%5D%2C%5B0.8%2C1%5D%2C%5B0.9%2C1%5D%2C%5B1%2C0.1%5D%2C%5B1%2C0.3%5D%2C%5B1%2C0.5%5D%2C%5B1%2C0.7%5D%2C%5B1%2C0.9%5D%5D%3B%22%20vertex%3D%221%22%20parent%3D%221%22%3E%3CmxGeometry%20x%3D%221210%22%20y%3D%22190%22%20width%3D%22150%22%20height%3D%2230%22%20as%3D%22geometry%22%2F%3E%3C%2FmxCell%3E%3C%2Froot%3E%3C%2FmxGraphModel%3E&lt;/span&gt;" style="rounded=0;whiteSpace=wrap;html=1;snapToPoint=1;points=[[0.1,0],[0.2,0],[0.3,0],[0.4,0],[0.5,0],[0.6,0],[0.7,0],[0.8,0],[0.9,0],[0,0.1],[0,0.3],[0,0.5],[0,0.7],[0,0.9],[0.1,1],[0.2,1],[0.3,1],[0.4,1],[0.5,1],[0.6,1],[0.7,1],[0.8,1],[0.9,1],[1,0.1],[1,0.3],[1,0.5],[1,0.7],[1,0.9]];" parent="1" vertex="1">
          <mxGeometry x="1020" y="240" width="150" height="30" as="geometry" />
        </mxCell>
        <mxCell id="5ucOheYLkEhU-QczYXZN-16" style="edgeStyle=orthogonalEdgeStyle;rounded=0;orthogonalLoop=1;jettySize=auto;html=1;endArrow=classic;endFill=1;" parent="1" source="713faTVkF-1HJnTwqdIZ-1" target="jXRsGs3nBoWVNFzLV1JU-2" edge="1">
          <mxGeometry relative="1" as="geometry">
            <mxPoint x="190" y="405" as="sourcePoint" />
            <mxPoint x="190" y="305" as="targetPoint" />
            <Array as="points">
              <mxPoint x="270" y="310" />
            </Array>
          </mxGeometry>
        </mxCell>
        <mxCell id="5ucOheYLkEhU-QczYXZN-17" value="energ:hasBuilding" style="edgeLabel;html=1;align=center;verticalAlign=middle;resizable=0;points=[];" parent="5ucOheYLkEhU-QczYXZN-16" vertex="1" connectable="0">
          <mxGeometry x="-0.1429" y="2" relative="1" as="geometry">
            <mxPoint x="-28" y="15" as="offset" />
          </mxGeometry>
        </mxCell>
        <mxCell id="5ucOheYLkEhU-QczYXZN-19" style="edgeStyle=orthogonalEdgeStyle;rounded=0;orthogonalLoop=1;jettySize=auto;html=1;endArrow=classic;endFill=1;exitX=0;exitY=0.5;exitDx=0;exitDy=0;" parent="1" source="jXRsGs3nBoWVNFzLV1JU-29" target="g0zH96nOjT9wecneinKK-1" edge="1">
          <mxGeometry relative="1" as="geometry">
            <Array as="points">
              <mxPoint x="480" y="5" />
              <mxPoint x="480" y="5" />
            </Array>
            <mxPoint x="470" y="167" as="sourcePoint" />
            <mxPoint x="570" y="70" as="targetPoint" />
          </mxGeometry>
        </mxCell>
        <mxCell id="5ucOheYLkEhU-QczYXZN-20" value="saref:isPropertyOf" style="edgeLabel;html=1;align=center;verticalAlign=middle;resizable=0;points=[];" parent="5ucOheYLkEhU-QczYXZN-19" vertex="1" connectable="0">
          <mxGeometry x="-0.3706" y="-2" relative="1" as="geometry">
            <mxPoint x="-14" y="-13" as="offset" />
          </mxGeometry>
        </mxCell>
        <mxCell id="5ucOheYLkEhU-QczYXZN-22" value="&#xa;dc:creator:  Ahlem Rhayem&#xa;dc:creator: Juan Cano&#xa;   dc:creator: Andrea Cimmino&#xa;dc:creator: Raúl García Castro&#xa;dc:creator: María Poveda Villalón&#xa;owl:versionInfo: 0.0.2&#xa;dc:title: The AURORAL  energy Ontology" style="shape=document;boundedLbl=1;" parent="1" vertex="1">
          <mxGeometry x="560" y="725.5" width="290" height="140" as="geometry" />
        </mxCell>
        <mxCell id="n_lG_z_I3ym1Ge2aDYqy-1" value="" style="endArrow=open;html=1;fontColor=#000099;endFill=0;dashed=1;endSize=8;edgeStyle=orthogonalEdgeStyle;arcSize=0;" parent="1" source="jXRsGs3nBoWVNFzLV1JU-34" target="jXRsGs3nBoWVNFzLV1JU-31" edge="1">
          <mxGeometry width="50" height="50" relative="1" as="geometry">
            <mxPoint x="940" y="240" as="sourcePoint" />
            <mxPoint x="910" y="175" as="targetPoint" />
            <Array as="points">
              <mxPoint x="970" y="215" />
              <mxPoint x="970" y="168" />
            </Array>
          </mxGeometry>
        </mxCell>
        <mxCell id="n_lG_z_I3ym1Ge2aDYqy-2" value="" style="endArrow=open;html=1;fontColor=#000099;endFill=0;dashed=1;endSize=8;edgeStyle=orthogonalEdgeStyle;arcSize=0;" parent="1" source="jXRsGs3nBoWVNFzLV1JU-35" target="jXRsGs3nBoWVNFzLV1JU-31" edge="1">
          <mxGeometry width="50" height="50" relative="1" as="geometry">
            <mxPoint x="940" y="283" as="sourcePoint" />
            <mxPoint x="920" y="168" as="targetPoint" />
            <Array as="points">
              <mxPoint x="970" y="260" />
              <mxPoint x="970" y="168" />
            </Array>
          </mxGeometry>
        </mxCell>
        <mxCell id="n_lG_z_I3ym1Ge2aDYqy-3" value="" style="endArrow=open;html=1;fontColor=#000099;endFill=0;dashed=1;endSize=8;edgeStyle=orthogonalEdgeStyle;arcSize=0;" parent="1" source="jXRsGs3nBoWVNFzLV1JU-36" target="jXRsGs3nBoWVNFzLV1JU-31" edge="1">
          <mxGeometry width="50" height="50" relative="1" as="geometry">
            <mxPoint x="940" y="326" as="sourcePoint" />
            <mxPoint x="920" y="168.5" as="targetPoint" />
            <Array as="points">
              <mxPoint x="970" y="295" />
              <mxPoint x="970" y="169" />
            </Array>
          </mxGeometry>
        </mxCell>
        <mxCell id="n_lG_z_I3ym1Ge2aDYqy-4" value="" style="endArrow=open;html=1;fontColor=#000099;endFill=0;dashed=1;endSize=8;edgeStyle=orthogonalEdgeStyle;arcSize=0;exitX=0.9;exitY=1;exitDx=0;exitDy=0;" parent="1" source="jXRsGs3nBoWVNFzLV1JU-37" target="jXRsGs3nBoWVNFzLV1JU-31" edge="1">
          <mxGeometry width="50" height="50" relative="1" as="geometry">
            <mxPoint x="940" y="365" as="sourcePoint" />
            <mxPoint x="920" y="168" as="targetPoint" />
            <Array as="points">
              <mxPoint x="940" y="350" />
              <mxPoint x="940" y="340" />
              <mxPoint x="970" y="340" />
              <mxPoint x="970" y="168" />
            </Array>
          </mxGeometry>
        </mxCell>
        <mxCell id="n_lG_z_I3ym1Ge2aDYqy-5" value="" style="endArrow=open;html=1;fontColor=#000099;endFill=0;dashed=1;endSize=8;edgeStyle=orthogonalEdgeStyle;arcSize=0;" parent="1" source="5ucOheYLkEhU-QczYXZN-1" target="jXRsGs3nBoWVNFzLV1JU-31" edge="1">
          <mxGeometry width="50" height="50" relative="1" as="geometry">
            <mxPoint x="940" y="397" as="sourcePoint" />
            <mxPoint x="920" y="168" as="targetPoint" />
            <Array as="points">
              <mxPoint x="970" y="375" />
              <mxPoint x="970" y="168" />
            </Array>
          </mxGeometry>
        </mxCell>
        <mxCell id="n_lG_z_I3ym1Ge2aDYqy-6" value="&lt;u&gt;energ:Apartment&lt;/u&gt;" style="rounded=0;whiteSpace=wrap;html=1;snapToPoint=1;points=[[0.1,0],[0.2,0],[0.3,0],[0.4,0],[0.5,0],[0.6,0],[0.7,0],[0.8,0],[0.9,0],[0,0.1],[0,0.3],[0,0.5],[0,0.7],[0,0.9],[0.1,1],[0.2,1],[0.3,1],[0.4,1],[0.5,1],[0.6,1],[0.7,1],[0.8,1],[0.9,1],[1,0.1],[1,0.3],[1,0.5],[1,0.7],[1,0.9]];" parent="1" vertex="1">
          <mxGeometry x="194.5" y="350" width="130" height="30" as="geometry" />
        </mxCell>
        <mxCell id="n_lG_z_I3ym1Ge2aDYqy-7" value="&lt;u&gt;energ:HouseWithoutElectricHeating&lt;/u&gt;" style="rounded=0;whiteSpace=wrap;html=1;snapToPoint=1;points=[[0.1,0],[0.2,0],[0.3,0],[0.4,0],[0.5,0],[0.6,0],[0.7,0],[0.8,0],[0.9,0],[0,0.1],[0,0.3],[0,0.5],[0,0.7],[0,0.9],[0.1,1],[0.2,1],[0.3,1],[0.4,1],[0.5,1],[0.6,1],[0.7,1],[0.8,1],[0.9,1],[1,0.1],[1,0.3],[1,0.5],[1,0.7],[1,0.9]];" parent="1" vertex="1">
          <mxGeometry x="110" y="395" width="214.5" height="30" as="geometry" />
        </mxCell>
        <mxCell id="n_lG_z_I3ym1Ge2aDYqy-8" value="&lt;u&gt;energ:HouseWithElectricHeating&lt;/u&gt;" style="rounded=0;whiteSpace=wrap;html=1;snapToPoint=1;points=[[0.1,0],[0.2,0],[0.3,0],[0.4,0],[0.5,0],[0.6,0],[0.7,0],[0.8,0],[0.9,0],[0,0.1],[0,0.3],[0,0.5],[0,0.7],[0,0.9],[0.1,1],[0.2,1],[0.3,1],[0.4,1],[0.5,1],[0.6,1],[0.7,1],[0.8,1],[0.9,1],[1,0.1],[1,0.3],[1,0.5],[1,0.7],[1,0.9]];" parent="1" vertex="1">
          <mxGeometry x="110" y="440" width="214.5" height="30" as="geometry" />
        </mxCell>
        <mxCell id="n_lG_z_I3ym1Ge2aDYqy-9" value="" style="endArrow=open;html=1;fontColor=#000099;endFill=0;dashed=1;endSize=8;exitX=1;exitY=0.5;exitDx=0;exitDy=0;edgeStyle=orthogonalEdgeStyle;arcSize=0;" parent="1" source="5ucOheYLkEhU-QczYXZN-8" target="713faTVkF-1HJnTwqdIZ-8" edge="1">
          <mxGeometry width="50" height="50" relative="1" as="geometry">
            <mxPoint x="1227.2" y="83.5" as="sourcePoint" />
            <mxPoint x="1190.0000000000002" y="50" as="targetPoint" />
            <Array as="points">
              <mxPoint x="1210" y="135" />
              <mxPoint x="1210" y="20" />
            </Array>
          </mxGeometry>
        </mxCell>
        <mxCell id="n_lG_z_I3ym1Ge2aDYqy-11" value="" style="endArrow=open;html=1;fontColor=#000099;endFill=0;dashed=1;endSize=8;edgeStyle=orthogonalEdgeStyle;arcSize=0;exitX=1;exitY=0.1;exitDx=0;exitDy=0;" parent="1" source="5ucOheYLkEhU-QczYXZN-9" target="713faTVkF-1HJnTwqdIZ-8" edge="1">
          <mxGeometry width="50" height="50" relative="1" as="geometry">
            <mxPoint x="1180" y="145" as="sourcePoint" />
            <mxPoint x="1130" y="77.5" as="targetPoint" />
            <Array as="points">
              <mxPoint x="1210" y="163" />
              <mxPoint x="1210" y="20" />
            </Array>
          </mxGeometry>
        </mxCell>
        <mxCell id="n_lG_z_I3ym1Ge2aDYqy-12" value="" style="endArrow=open;html=1;fontColor=#000099;endFill=0;dashed=1;endSize=8;exitX=1;exitY=0.5;exitDx=0;exitDy=0;edgeStyle=orthogonalEdgeStyle;arcSize=0;" parent="1" source="5ucOheYLkEhU-QczYXZN-10" target="713faTVkF-1HJnTwqdIZ-8" edge="1">
          <mxGeometry width="50" height="50" relative="1" as="geometry">
            <mxPoint x="1170" y="150" as="sourcePoint" />
            <mxPoint x="1120" y="82.5" as="targetPoint" />
            <Array as="points">
              <mxPoint x="1210" y="215" />
              <mxPoint x="1210" y="20" />
            </Array>
          </mxGeometry>
        </mxCell>
        <mxCell id="n_lG_z_I3ym1Ge2aDYqy-13" value="" style="endArrow=open;html=1;fontColor=#000099;endFill=0;dashed=1;endSize=8;edgeStyle=orthogonalEdgeStyle;arcSize=0;" parent="1" target="713faTVkF-1HJnTwqdIZ-8" edge="1">
          <mxGeometry width="50" height="50" relative="1" as="geometry">
            <mxPoint x="1170" y="258" as="sourcePoint" />
            <mxPoint x="1120" y="190" as="targetPoint" />
            <Array as="points">
              <mxPoint x="1210" y="258" />
              <mxPoint x="1210" y="20" />
            </Array>
          </mxGeometry>
        </mxCell>
        <mxCell id="n_lG_z_I3ym1Ge2aDYqy-20" value="" style="endArrow=open;html=1;fontColor=#000099;endFill=0;dashed=1;endSize=8;exitX=1;exitY=0.5;exitDx=0;exitDy=0;edgeStyle=orthogonalEdgeStyle;arcSize=0;" parent="1" source="n_lG_z_I3ym1Ge2aDYqy-6" target="713faTVkF-1HJnTwqdIZ-1" edge="1">
          <mxGeometry width="50" height="50" relative="1" as="geometry">
            <mxPoint x="369" y="388.75" as="sourcePoint" />
            <mxPoint x="319" y="321.25" as="targetPoint" />
            <Array as="points">
              <mxPoint x="325" y="360" />
              <mxPoint x="389" y="360" />
              <mxPoint x="389" y="321" />
            </Array>
          </mxGeometry>
        </mxCell>
        <mxCell id="n_lG_z_I3ym1Ge2aDYqy-21" value="" style="endArrow=open;html=1;fontColor=#000099;endFill=0;dashed=1;endSize=8;edgeStyle=orthogonalEdgeStyle;arcSize=0;" parent="1" source="n_lG_z_I3ym1Ge2aDYqy-7" target="713faTVkF-1HJnTwqdIZ-1" edge="1">
          <mxGeometry width="50" height="50" relative="1" as="geometry">
            <mxPoint x="335.5" y="406" as="sourcePoint" />
            <mxPoint x="326.5" y="362" as="targetPoint" />
            <Array as="points">
              <mxPoint x="390" y="410" />
              <mxPoint x="390" y="320" />
            </Array>
          </mxGeometry>
        </mxCell>
        <mxCell id="n_lG_z_I3ym1Ge2aDYqy-22" value="" style="endArrow=open;html=1;fontColor=#000099;endFill=0;dashed=1;endSize=8;exitX=1;exitY=0.5;exitDx=0;exitDy=0;edgeStyle=orthogonalEdgeStyle;arcSize=0;" parent="1" source="n_lG_z_I3ym1Ge2aDYqy-8" target="713faTVkF-1HJnTwqdIZ-1" edge="1">
          <mxGeometry width="50" height="50" relative="1" as="geometry">
            <mxPoint x="334.5" y="375" as="sourcePoint" />
            <mxPoint x="325.5" y="331" as="targetPoint" />
            <Array as="points">
              <mxPoint x="390" y="455" />
              <mxPoint x="390" y="320" />
            </Array>
          </mxGeometry>
        </mxCell>
        <mxCell id="n_lG_z_I3ym1Ge2aDYqy-23" value="" style="endArrow=open;html=1;fontColor=#000099;endFill=0;dashed=1;endSize=8;exitX=1;exitY=0.5;exitDx=0;exitDy=0;edgeStyle=orthogonalEdgeStyle;arcSize=0;" parent="1" source="jXRsGs3nBoWVNFzLV1JU-13" target="713faTVkF-1HJnTwqdIZ-1" edge="1">
          <mxGeometry width="50" height="50" relative="1" as="geometry">
            <mxPoint x="344.5" y="385" as="sourcePoint" />
            <mxPoint x="335.5" y="341" as="targetPoint" />
            <Array as="points">
              <mxPoint x="390" y="495" />
              <mxPoint x="390" y="320" />
            </Array>
          </mxGeometry>
        </mxCell>
        <mxCell id="GbehQJm9iuV5qYzCONMx-1" value="" style="rounded=0;whiteSpace=wrap;html=1;" parent="1" vertex="1">
          <mxGeometry x="90" y="645.5" width="450" height="220" as="geometry" />
        </mxCell>
        <mxCell id="GbehQJm9iuV5qYzCONMx-2" value="Legend" style="text;strokeColor=none;fillColor=none;align=center;verticalAlign=middle;rounded=0;fontStyle=1;fontSize=16;" parent="1" vertex="1">
          <mxGeometry x="115" y="640" width="60" height="30" as="geometry" />
        </mxCell>
        <mxCell id="GbehQJm9iuV5qYzCONMx-3" value="Class" style="swimlane;fontStyle=0;childLayout=stackLayout;horizontal=1;startSize=30;horizontalStack=0;resizeParent=1;resizeParentMax=0;resizeLast=0;collapsible=1;marginBottom=0;fillColor=#A9D2FC;strokeColor=#82b366;" parent="1" vertex="1">
          <mxGeometry x="121" y="700" width="140" height="60" as="geometry" />
        </mxCell>
        <mxCell id="GbehQJm9iuV5qYzCONMx-4" value="Datatype property" style="text;strokeColor=none;fillColor=none;align=left;verticalAlign=middle;spacingLeft=4;spacingRight=4;overflow=hidden;points=[[0,0.5],[1,0.5]];portConstraint=eastwest;rotatable=0;" parent="GbehQJm9iuV5qYzCONMx-3" vertex="1">
          <mxGeometry y="30" width="140" height="30" as="geometry" />
        </mxCell>
        <mxCell id="GbehQJm9iuV5qYzCONMx-5" value="&lt;u&gt;Instance&lt;/u&gt;" style="rounded=0;whiteSpace=wrap;html=1;" parent="1" vertex="1">
          <mxGeometry x="127" y="780" width="134" height="25" as="geometry" />
        </mxCell>
        <mxCell id="GbehQJm9iuV5qYzCONMx-6" value="Reused class" style="rounded=0;whiteSpace=wrap;html=1;" parent="1" vertex="1">
          <mxGeometry x="275" y="700" width="114.5" height="30" as="geometry" />
        </mxCell>
        <mxCell id="GbehQJm9iuV5qYzCONMx-7" style="edgeStyle=orthogonalEdgeStyle;rounded=0;orthogonalLoop=1;jettySize=auto;html=1;endArrow=classic;endFill=1;dashed=1;" parent="1" edge="1">
          <mxGeometry relative="1" as="geometry">
            <mxPoint x="280.5" y="792" as="sourcePoint" />
            <mxPoint x="389.5" y="792" as="targetPoint" />
            <Array as="points">
              <mxPoint x="280.5" y="792" />
            </Array>
          </mxGeometry>
        </mxCell>
        <mxCell id="GbehQJm9iuV5qYzCONMx-8" style="edgeStyle=orthogonalEdgeStyle;rounded=0;orthogonalLoop=1;jettySize=auto;html=1;endArrow=classic;endFill=1;" parent="1" edge="1">
          <mxGeometry relative="1" as="geometry">
            <mxPoint x="412" y="714.5" as="sourcePoint" />
            <mxPoint x="521" y="714.5" as="targetPoint" />
            <Array as="points">
              <mxPoint x="412" y="714.5" />
            </Array>
          </mxGeometry>
        </mxCell>
        <mxCell id="GbehQJm9iuV5qYzCONMx-9" style="edgeStyle=orthogonalEdgeStyle;rounded=0;orthogonalLoop=1;jettySize=auto;html=1;endArrow=block;endFill=0;" parent="1" edge="1">
          <mxGeometry relative="1" as="geometry">
            <mxPoint x="412" y="792" as="sourcePoint" />
            <mxPoint x="521" y="792" as="targetPoint" />
            <Array as="points">
              <mxPoint x="412" y="792" />
            </Array>
          </mxGeometry>
        </mxCell>
        <mxCell id="GbehQJm9iuV5qYzCONMx-10" value="type" style="text;strokeColor=none;fillColor=none;align=center;verticalAlign=middle;rounded=0;" parent="1" vertex="1">
          <mxGeometry x="302.25" y="790" width="60" height="30" as="geometry" />
        </mxCell>
        <mxCell id="GbehQJm9iuV5qYzCONMx-11" value="object property" style="text;strokeColor=none;fillColor=none;align=center;verticalAlign=middle;rounded=0;" parent="1" vertex="1">
          <mxGeometry x="412" y="710" width="110" height="30" as="geometry" />
        </mxCell>
        <mxCell id="GbehQJm9iuV5qYzCONMx-12" value="subClassOf" style="text;strokeColor=none;fillColor=none;align=center;verticalAlign=middle;rounded=0;" parent="1" vertex="1">
          <mxGeometry x="412" y="790" width="110" height="30" as="geometry" />
        </mxCell>
        <mxCell id="puecOfDG-9x5ep2dRrwm-1" value="energ:CostPriceSeason" style="rounded=0;whiteSpace=wrap;html=1;fillColor=#A9D2FC;strokeColor=#6c8ebf;" parent="1" vertex="1">
          <mxGeometry x="624" y="370" width="146" height="30" as="geometry" />
        </mxCell>
        <mxCell id="puecOfDG-9x5ep2dRrwm-6" value="energ:costPrice:Float" style="rounded=0;whiteSpace=wrap;html=1;snapToPoint=1;points=[[0.1,0],[0.2,0],[0.3,0],[0.4,0],[0.5,0],[0.6,0],[0.7,0],[0.8,0],[0.9,0],[0,0.1],[0,0.3],[0,0.5],[0,0.7],[0,0.9],[0.1,1],[0.2,1],[0.3,1],[0.4,1],[0.5,1],[0.6,1],[0.7,1],[0.8,1],[0.9,1],[1,0.1],[1,0.3],[1,0.5],[1,0.7],[1,0.9]];" parent="1" vertex="1">
          <mxGeometry x="624" y="400" width="146" height="40" as="geometry" />
        </mxCell>
        <mxCell id="puecOfDG-9x5ep2dRrwm-10" value="energ:Season" style="rounded=0;whiteSpace=wrap;html=1;fillColor=#A9D2FC;strokeColor=#6c8ebf;" parent="1" vertex="1">
          <mxGeometry x="624" y="490" width="146" height="30" as="geometry" />
        </mxCell>
        <mxCell id="puecOfDG-9x5ep2dRrwm-11" value="&lt;u&gt;energ:Winter&lt;/u&gt;" style="rounded=0;whiteSpace=wrap;html=1;snapToPoint=1;points=[[0.1,0],[0.2,0],[0.3,0],[0.4,0],[0.5,0],[0.6,0],[0.7,0],[0.8,0],[0.9,0],[0,0.1],[0,0.3],[0,0.5],[0,0.7],[0,0.9],[0.1,1],[0.2,1],[0.3,1],[0.4,1],[0.5,1],[0.6,1],[0.7,1],[0.8,1],[0.9,1],[1,0.1],[1,0.3],[1,0.5],[1,0.7],[1,0.9]];" parent="1" vertex="1">
          <mxGeometry x="660" y="540" width="130" height="30" as="geometry" />
        </mxCell>
        <mxCell id="puecOfDG-9x5ep2dRrwm-12" value="&lt;u&gt;energ:Spring&lt;/u&gt;" style="rounded=0;whiteSpace=wrap;html=1;snapToPoint=1;points=[[0.1,0],[0.2,0],[0.3,0],[0.4,0],[0.5,0],[0.6,0],[0.7,0],[0.8,0],[0.9,0],[0,0.1],[0,0.3],[0,0.5],[0,0.7],[0,0.9],[0.1,1],[0.2,1],[0.3,1],[0.4,1],[0.5,1],[0.6,1],[0.7,1],[0.8,1],[0.9,1],[1,0.1],[1,0.3],[1,0.5],[1,0.7],[1,0.9]];" parent="1" vertex="1">
          <mxGeometry x="659" y="576" width="130" height="30" as="geometry" />
        </mxCell>
        <mxCell id="puecOfDG-9x5ep2dRrwm-13" value="&lt;u&gt;energ:Summer&lt;/u&gt;" style="rounded=0;whiteSpace=wrap;html=1;snapToPoint=1;points=[[0.1,0],[0.2,0],[0.3,0],[0.4,0],[0.5,0],[0.6,0],[0.7,0],[0.8,0],[0.9,0],[0,0.1],[0,0.3],[0,0.5],[0,0.7],[0,0.9],[0.1,1],[0.2,1],[0.3,1],[0.4,1],[0.5,1],[0.6,1],[0.7,1],[0.8,1],[0.9,1],[1,0.1],[1,0.3],[1,0.5],[1,0.7],[1,0.9]];" parent="1" vertex="1">
          <mxGeometry x="659" y="615" width="130" height="30" as="geometry" />
        </mxCell>
        <mxCell id="puecOfDG-9x5ep2dRrwm-14" value="&lt;u&gt;energ:Autumn&lt;/u&gt;" style="rounded=0;whiteSpace=wrap;html=1;snapToPoint=1;points=[[0.1,0],[0.2,0],[0.3,0],[0.4,0],[0.5,0],[0.6,0],[0.7,0],[0.8,0],[0.9,0],[0,0.1],[0,0.3],[0,0.5],[0,0.7],[0,0.9],[0.1,1],[0.2,1],[0.3,1],[0.4,1],[0.5,1],[0.6,1],[0.7,1],[0.8,1],[0.9,1],[1,0.1],[1,0.3],[1,0.5],[1,0.7],[1,0.9]];" parent="1" vertex="1">
          <mxGeometry x="660" y="647" width="130" height="30" as="geometry" />
        </mxCell>
        <mxCell id="puecOfDG-9x5ep2dRrwm-15" value="" style="endArrow=open;html=1;fontColor=#000099;endFill=0;dashed=1;endSize=8;edgeStyle=orthogonalEdgeStyle;arcSize=0;" parent="1" source="puecOfDG-9x5ep2dRrwm-11" target="puecOfDG-9x5ep2dRrwm-10" edge="1">
          <mxGeometry width="50" height="50" relative="1" as="geometry">
            <mxPoint x="807" y="557.5" as="sourcePoint" />
            <mxPoint x="757" y="490" as="targetPoint" />
            <Array as="points">
              <mxPoint x="827" y="558" />
              <mxPoint x="827" y="505" />
            </Array>
          </mxGeometry>
        </mxCell>
        <mxCell id="puecOfDG-9x5ep2dRrwm-16" value="" style="endArrow=open;html=1;fontColor=#000099;endFill=0;dashed=1;endSize=8;edgeStyle=orthogonalEdgeStyle;arcSize=0;" parent="1" source="puecOfDG-9x5ep2dRrwm-12" target="puecOfDG-9x5ep2dRrwm-10" edge="1">
          <mxGeometry width="50" height="50" relative="1" as="geometry">
            <mxPoint x="780" y="600" as="sourcePoint" />
            <mxPoint x="767" y="506" as="targetPoint" />
            <Array as="points">
              <mxPoint x="827" y="593" />
              <mxPoint x="827" y="506" />
            </Array>
          </mxGeometry>
        </mxCell>
        <mxCell id="puecOfDG-9x5ep2dRrwm-17" value="" style="endArrow=open;html=1;fontColor=#000099;endFill=0;dashed=1;endSize=8;edgeStyle=orthogonalEdgeStyle;arcSize=0;entryX=1;entryY=0.5;entryDx=0;entryDy=0;" parent="1" source="puecOfDG-9x5ep2dRrwm-13" target="puecOfDG-9x5ep2dRrwm-10" edge="1">
          <mxGeometry width="50" height="50" relative="1" as="geometry">
            <mxPoint x="790" y="626" as="sourcePoint" />
            <mxPoint x="770" y="576" as="targetPoint" />
            <Array as="points">
              <mxPoint x="790" y="629" />
              <mxPoint x="827" y="629" />
              <mxPoint x="827" y="505" />
            </Array>
          </mxGeometry>
        </mxCell>
        <mxCell id="puecOfDG-9x5ep2dRrwm-18" value="" style="endArrow=open;html=1;fontColor=#000099;endFill=0;dashed=1;endSize=8;edgeStyle=orthogonalEdgeStyle;arcSize=0;" parent="1" source="puecOfDG-9x5ep2dRrwm-14" target="puecOfDG-9x5ep2dRrwm-10" edge="1">
          <mxGeometry width="50" height="50" relative="1" as="geometry">
            <mxPoint x="787" y="662" as="sourcePoint" />
            <mxPoint x="767" y="505" as="targetPoint" />
            <Array as="points">
              <mxPoint x="796" y="664" />
              <mxPoint x="827" y="664" />
              <mxPoint x="827" y="505" />
            </Array>
          </mxGeometry>
        </mxCell>
        <mxCell id="puecOfDG-9x5ep2dRrwm-19" style="edgeStyle=orthogonalEdgeStyle;rounded=0;orthogonalLoop=1;jettySize=auto;html=1;endArrow=classic;endFill=1;entryX=0;entryY=0.5;entryDx=0;entryDy=0;" parent="1" source="puecOfDG-9x5ep2dRrwm-1" target="puecOfDG-9x5ep2dRrwm-10" edge="1">
          <mxGeometry relative="1" as="geometry">
            <Array as="points">
              <mxPoint x="610" y="385" />
              <mxPoint x="610" y="505" />
            </Array>
            <mxPoint x="580" y="470" as="sourcePoint" />
            <mxPoint x="490" y="470" as="targetPoint" />
          </mxGeometry>
        </mxCell>
        <mxCell id="puecOfDG-9x5ep2dRrwm-20" value="energ:forSeason" style="edgeLabel;html=1;align=center;verticalAlign=middle;resizable=0;points=[];" parent="puecOfDG-9x5ep2dRrwm-19" vertex="1" connectable="0">
          <mxGeometry x="0.3821" y="-1" relative="1" as="geometry">
            <mxPoint x="41" y="-8" as="offset" />
          </mxGeometry>
        </mxCell>
        <mxCell id="puecOfDG-9x5ep2dRrwm-21" value="energ:PriceAgreement" style="rounded=0;whiteSpace=wrap;html=1;fillColor=#A9D2FC;strokeColor=#6c8ebf;" parent="1" vertex="1">
          <mxGeometry x="414" y="370" width="146" height="30" as="geometry" />
        </mxCell>
        <mxCell id="puecOfDG-9x5ep2dRrwm-22" value="energ:FixedAgreement" style="rounded=0;whiteSpace=wrap;html=1;fillColor=#FFFFFF;strokeColor=#6c8ebf;" parent="1" vertex="1">
          <mxGeometry x="403" y="435" width="146" height="30" as="geometry" />
        </mxCell>
        <mxCell id="puecOfDG-9x5ep2dRrwm-23" value="energ:VariableAgreement" style="rounded=0;whiteSpace=wrap;html=1;fillColor=#FFFFFF;strokeColor=#6c8ebf;" parent="1" vertex="1">
          <mxGeometry x="403" y="510" width="146" height="30" as="geometry" />
        </mxCell>
        <mxCell id="puecOfDG-9x5ep2dRrwm-24" value="energ:StandardAgreement" style="rounded=0;whiteSpace=wrap;html=1;fillColor=#FFFFFF;strokeColor=#6c8ebf;" parent="1" vertex="1">
          <mxGeometry x="403" y="546" width="146" height="30" as="geometry" />
        </mxCell>
        <mxCell id="puecOfDG-9x5ep2dRrwm-25" style="edgeStyle=orthogonalEdgeStyle;rounded=0;orthogonalLoop=1;jettySize=auto;html=1;endArrow=block;endFill=0;" parent="1" source="puecOfDG-9x5ep2dRrwm-22" target="puecOfDG-9x5ep2dRrwm-21" edge="1">
          <mxGeometry relative="1" as="geometry">
            <mxPoint x="599" y="445" as="sourcePoint" />
            <mxPoint x="560" y="390" as="targetPoint" />
            <Array as="points">
              <mxPoint x="599" y="450" />
              <mxPoint x="599" y="390" />
            </Array>
          </mxGeometry>
        </mxCell>
        <mxCell id="puecOfDG-9x5ep2dRrwm-26" style="edgeStyle=orthogonalEdgeStyle;rounded=0;orthogonalLoop=1;jettySize=auto;html=1;endArrow=block;endFill=0;" parent="1" source="puecOfDG-9x5ep2dRrwm-23" target="puecOfDG-9x5ep2dRrwm-21" edge="1">
          <mxGeometry relative="1" as="geometry">
            <mxPoint x="559" y="460" as="sourcePoint" />
            <mxPoint x="570" y="400" as="targetPoint" />
            <Array as="points">
              <mxPoint x="600" y="525" />
              <mxPoint x="600" y="390" />
            </Array>
          </mxGeometry>
        </mxCell>
        <mxCell id="puecOfDG-9x5ep2dRrwm-27" style="edgeStyle=orthogonalEdgeStyle;rounded=0;orthogonalLoop=1;jettySize=auto;html=1;endArrow=block;endFill=0;" parent="1" source="puecOfDG-9x5ep2dRrwm-24" target="puecOfDG-9x5ep2dRrwm-21" edge="1">
          <mxGeometry relative="1" as="geometry">
            <mxPoint x="559" y="520" as="sourcePoint" />
            <mxPoint x="570" y="460" as="targetPoint" />
            <Array as="points">
              <mxPoint x="600" y="560" />
              <mxPoint x="600" y="390" />
            </Array>
          </mxGeometry>
        </mxCell>
        <mxCell id="puecOfDG-9x5ep2dRrwm-28" value="energ:contractType:String" style="rounded=0;whiteSpace=wrap;html=1;snapToPoint=1;points=[[0.1,0],[0.2,0],[0.3,0],[0.4,0],[0.5,0],[0.6,0],[0.7,0],[0.8,0],[0.9,0],[0,0.1],[0,0.3],[0,0.5],[0,0.7],[0,0.9],[0.1,1],[0.2,1],[0.3,1],[0.4,1],[0.5,1],[0.6,1],[0.7,1],[0.8,1],[0.9,1],[1,0.1],[1,0.3],[1,0.5],[1,0.7],[1,0.9]];" parent="1" vertex="1">
          <mxGeometry x="403" y="465" width="146" height="40" as="geometry" />
        </mxCell>
        <mxCell id="puecOfDG-9x5ep2dRrwm-30" value="cur:Currency" style="rounded=0;whiteSpace=wrap;html=1;fillColor=#FFFFFF;strokeColor=#6c8ebf;" parent="1" vertex="1">
          <mxGeometry x="910" y="410" width="146" height="30" as="geometry" />
        </mxCell>
        <mxCell id="puecOfDG-9x5ep2dRrwm-31" value="energ:inCurrency" style="edgeStyle=orthogonalEdgeStyle;rounded=0;orthogonalLoop=1;jettySize=auto;endArrow=classic;endFill=1;dashed=1;" parent="1" source="puecOfDG-9x5ep2dRrwm-1" target="puecOfDG-9x5ep2dRrwm-30" edge="1">
          <mxGeometry x="0.0441" relative="1" as="geometry">
            <mxPoint x="940" y="450" as="targetPoint" />
            <mxPoint x="800" y="360" as="sourcePoint" />
            <mxPoint as="offset" />
            <Array as="points">
              <mxPoint x="810" y="400" />
              <mxPoint x="810" y="420" />
            </Array>
          </mxGeometry>
        </mxCell>
        <mxCell id="puecOfDG-9x5ep2dRrwm-32" style="edgeStyle=orthogonalEdgeStyle;rounded=0;orthogonalLoop=1;jettySize=auto;html=1;exitX=0.5;exitY=0;exitDx=0;exitDy=0;endArrow=classic;endFill=1;" parent="1" source="puecOfDG-9x5ep2dRrwm-21" target="puecOfDG-9x5ep2dRrwm-1" edge="1">
          <mxGeometry relative="1" as="geometry">
            <mxPoint x="634" y="356.25" as="sourcePoint" />
            <mxPoint x="624" y="483.75" as="targetPoint" />
            <Array as="points">
              <mxPoint x="487" y="357" />
              <mxPoint x="624" y="357" />
            </Array>
          </mxGeometry>
        </mxCell>
        <mxCell id="puecOfDG-9x5ep2dRrwm-33" value="energ:hasCostPrice" style="edgeLabel;html=1;align=center;verticalAlign=middle;resizable=0;points=[];" parent="puecOfDG-9x5ep2dRrwm-32" vertex="1" connectable="0">
          <mxGeometry x="0.2246" y="-1" relative="1" as="geometry">
            <mxPoint x="-14" y="-8" as="offset" />
          </mxGeometry>
        </mxCell>
        <mxCell id="bPdux7eXmS8dh4rzwYNR-1" value="&lt;span style=&quot;color: rgb(0, 0, 0); font-family: helvetica; font-size: 11px; font-style: normal; font-weight: 400; letter-spacing: normal; text-align: center; text-indent: 0px; text-transform: none; word-spacing: 0px; background-color: rgb(255, 255, 255); display: inline; float: none;&quot;&gt;saref:relatesToProperty&lt;/span&gt;" style="text;whiteSpace=wrap;html=1;" parent="1" vertex="1">
          <mxGeometry x="670" y="-40" width="140" height="30" as="geometry" />
        </mxCell>
        <mxCell id="bPdux7eXmS8dh4rzwYNR-3" value="&lt;span style=&quot;color: rgb(0 , 0 , 0) ; font-family: &amp;#34;helvetica&amp;#34; ; font-size: 11px ; font-style: normal ; font-weight: 400 ; letter-spacing: normal ; text-align: center ; text-indent: 0px ; text-transform: none ; word-spacing: 0px ; background-color: rgb(255 , 255 , 255) ; display: inline ; float: none&quot;&gt;saref:relatesToMeasurement&lt;/span&gt;" style="text;whiteSpace=wrap;html=1;" parent="1" vertex="1">
          <mxGeometry x="680" y="80" width="140" height="30" as="geometry" />
        </mxCell>
        <mxCell id="bPdux7eXmS8dh4rzwYNR-5" value="(F) saref:hasTimeStamp: dateTime&lt;br&gt;saref:hasValue" style="rounded=0;whiteSpace=wrap;html=1;snapToPoint=1;points=[[0.1,0],[0.2,0],[0.3,0],[0.4,0],[0.5,0],[0.6,0],[0.7,0],[0.8,0],[0.9,0],[0,0.1],[0,0.3],[0,0.5],[0,0.7],[0,0.9],[0.1,1],[0.2,1],[0.3,1],[0.4,1],[0.5,1],[0.6,1],[0.7,1],[0.8,1],[0.9,1],[1,0.1],[1,0.3],[1,0.5],[1,0.7],[1,0.9]];dashed=1;align=left;" parent="1" vertex="1">
          <mxGeometry x="770" y="20" width="200" height="30" as="geometry" />
        </mxCell>
        <mxCell id="OC1ixaKKDsN-Ciqs8af9-1" style="edgeStyle=orthogonalEdgeStyle;rounded=0;orthogonalLoop=1;jettySize=auto;html=1;exitX=0;exitY=0.75;exitDx=0;exitDy=0;endArrow=classic;endFill=1;entryX=0.25;entryY=0;entryDx=0;entryDy=0;" parent="1" source="jXRsGs3nBoWVNFzLV1JU-17" target="puecOfDG-9x5ep2dRrwm-21" edge="1">
          <mxGeometry relative="1" as="geometry">
            <mxPoint x="497" y="380" as="sourcePoint" />
            <mxPoint x="634" y="380" as="targetPoint" />
            <Array as="points">
              <mxPoint x="451" y="323" />
            </Array>
          </mxGeometry>
        </mxCell>
        <mxCell id="OC1ixaKKDsN-Ciqs8af9-2" value="energ:hasAgreement" style="edgeLabel;html=1;align=center;verticalAlign=middle;resizable=0;points=[];" parent="OC1ixaKKDsN-Ciqs8af9-1" vertex="1" connectable="0">
          <mxGeometry x="0.2246" y="-1" relative="1" as="geometry">
            <mxPoint x="-14" y="13.5" as="offset" />
          </mxGeometry>
        </mxCell>
        <mxCell id="JZl1SSc7GacqZTie1NtL-1" value="&lt;u&gt;core:MegawattHour&lt;/u&gt;" style="rounded=0;whiteSpace=wrap;html=1;snapToPoint=1;points=[[0.1,0],[0.2,0],[0.3,0],[0.4,0],[0.5,0],[0.6,0],[0.7,0],[0.8,0],[0.9,0],[0,0.1],[0,0.3],[0,0.5],[0,0.7],[0,0.9],[0.1,1],[0.2,1],[0.3,1],[0.4,1],[0.5,1],[0.6,1],[0.7,1],[0.8,1],[0.9,1],[1,0.1],[1,0.3],[1,0.5],[1,0.7],[1,0.9]];" vertex="1" parent="1">
          <mxGeometry x="1020" y="290" width="180" height="30" as="geometry" />
        </mxCell>
        <mxCell id="JZl1SSc7GacqZTie1NtL-2" value="" style="endArrow=open;html=1;fontColor=#000099;endFill=0;dashed=1;endSize=8;edgeStyle=orthogonalEdgeStyle;arcSize=0;entryX=0.5;entryY=1;entryDx=0;entryDy=0;exitX=1;exitY=0.5;exitDx=0;exitDy=0;" edge="1" parent="1" source="JZl1SSc7GacqZTie1NtL-1" target="713faTVkF-1HJnTwqdIZ-8">
          <mxGeometry width="50" height="50" relative="1" as="geometry">
            <mxPoint x="1180" y="268" as="sourcePoint" />
            <mxPoint x="1125" y="-20" as="targetPoint" />
            <Array as="points">
              <mxPoint x="1210" y="305" />
              <mxPoint x="1210" y="20" />
              <mxPoint x="1115" y="20" />
            </Array>
          </mxGeometry>
        </mxCell>
        <mxCell id="JZl1SSc7GacqZTie1NtL-3" value="energ:PriceMeasurement" style="rounded=0;whiteSpace=wrap;html=1;fillColor=#FFFFFF;strokeColor=#6c8ebf;" vertex="1" parent="1">
          <mxGeometry x="890" y="80" width="160" height="30" as="geometry" />
        </mxCell>
        <mxCell id="JZl1SSc7GacqZTie1NtL-4" style="edgeStyle=orthogonalEdgeStyle;rounded=0;orthogonalLoop=1;jettySize=auto;html=1;endArrow=block;endFill=0;exitX=0;exitY=0.5;exitDx=0;exitDy=0;entryX=0.5;entryY=1;entryDx=0;entryDy=0;" edge="1" parent="1" source="JZl1SSc7GacqZTie1NtL-3" target="bPdux7eXmS8dh4rzwYNR-5">
          <mxGeometry relative="1" as="geometry">
            <mxPoint x="625" y="160" as="sourcePoint" />
            <mxPoint x="635" y="30" as="targetPoint" />
            <Array as="points" />
          </mxGeometry>
        </mxCell>
        <mxCell id="JZl1SSc7GacqZTie1NtL-5" value="energ:inCurrency" style="edgeStyle=orthogonalEdgeStyle;rounded=0;orthogonalLoop=1;jettySize=auto;endArrow=classic;endFill=1;dashed=1;exitX=0.5;exitY=1;exitDx=0;exitDy=0;entryX=0.75;entryY=0;entryDx=0;entryDy=0;" edge="1" parent="1" source="JZl1SSc7GacqZTie1NtL-3" target="puecOfDG-9x5ep2dRrwm-30">
          <mxGeometry x="0.8283" y="21" relative="1" as="geometry">
            <mxPoint x="920" y="430" as="targetPoint" />
            <mxPoint x="780" y="410" as="sourcePoint" />
            <mxPoint x="21" y="21" as="offset" />
            <Array as="points">
              <mxPoint x="970" y="140" />
              <mxPoint x="990" y="140" />
              <mxPoint x="990" y="380" />
              <mxPoint x="1020" y="380" />
            </Array>
          </mxGeometry>
        </mxCell>
        <mxCell id="JZl1SSc7GacqZTie1NtL-6" style="edgeStyle=orthogonalEdgeStyle;rounded=0;orthogonalLoop=1;jettySize=auto;html=1;endArrow=classic;endFill=1;exitX=0.5;exitY=0;exitDx=0;exitDy=0;entryX=0.5;entryY=1;entryDx=0;entryDy=0;" edge="1" parent="1" source="713faTVkF-1HJnTwqdIZ-5" target="JZl1SSc7GacqZTie1NtL-9">
          <mxGeometry relative="1" as="geometry">
            <mxPoint x="780" y="10" as="sourcePoint" />
            <mxPoint x="870" y="-110" as="targetPoint" />
          </mxGeometry>
        </mxCell>
        <mxCell id="JZl1SSc7GacqZTie1NtL-8" value="core:hasTemporalEntity" style="edgeLabel;html=1;align=center;verticalAlign=middle;resizable=0;points=[];" vertex="1" connectable="0" parent="JZl1SSc7GacqZTie1NtL-6">
          <mxGeometry x="-0.287" y="2" relative="1" as="geometry">
            <mxPoint x="2" y="-19" as="offset" />
          </mxGeometry>
        </mxCell>
        <mxCell id="JZl1SSc7GacqZTie1NtL-7" value="time:TemporalEntity" style="rounded=0;whiteSpace=wrap;html=1;fillColor=#FFFFFF;strokeColor=#6c8ebf;" vertex="1" parent="1">
          <mxGeometry x="800" y="-180" width="140" height="30" as="geometry" />
        </mxCell>
        <mxCell id="JZl1SSc7GacqZTie1NtL-9" value="time:before::xsd:datetime&lt;br&gt;time:after::xsd:datetime" style="rounded=0;whiteSpace=wrap;html=1;snapToPoint=1;points=[[0.1,0],[0.2,0],[0.3,0],[0.4,0],[0.5,0],[0.6,0],[0.7,0],[0.8,0],[0.9,0],[0,0.1],[0,0.3],[0,0.5],[0,0.7],[0,0.9],[0.1,1],[0.2,1],[0.3,1],[0.4,1],[0.5,1],[0.6,1],[0.7,1],[0.8,1],[0.9,1],[1,0.1],[1,0.3],[1,0.5],[1,0.7],[1,0.9]];dashed=1;align=left;" vertex="1" parent="1">
          <mxGeometry x="800" y="-150" width="140" height="30" as="geometry" />
        </mxCell>
      </root>
    </mxGraphModel>
  </diagram>
</mxfile>
